Coordinates
version=1
nRows=22
nColumns=33
inDegrees=yes

Units are S.I. units (second, meters, Newtons, ...)
Angles are in degrees.

endheader
time	ground_thorax_rot_x	ground_thorax_rot_y	ground_thorax_rot_z	ground_thorax_tx	ground_thorax_ty	ground_thorax_tz	clav_prot_r	clav_elev_r	scapula_abduction_r	scapula_elevation_r	scapula_upward_rot_r	scapula_winging_r	shoulder_elv_r	plane_of_elev_r	axial_rot_r	elbow_flexion_r	pro_sup_r	wrist_flex_r	wrist_dev_r	clav_prot_l	clav_elev_l	scapula_abduction_l	scapula_elevation_l	scapula_upward_rot_l	scapula_winging_l	shoulder_elv_l	plane_of_elev_l	axial_rot_l	elbow_flexion_l	pro_sup_l	wrist_flex_l	wrist_dev_l	
10.3200	-34.371282	-20.797075	31.825025	-192.122557	815.729828	6.409428	7.347943	-45.000000	38.523456	-45.000000	-36.497117	2058.059100	-1729.076582	33.318730	62.399931	2173.215444	19.105915	19.451859	7.318171	14.718517	37.518542	-36.537089	-45.000000	-45.000000	-2075.543214	2065.181432	135.078061	170.892512	1450.696454	-353.742912	7.390751	-19.128538	
10.3300	-34.038995	-21.254463	32.506799	-188.037499	814.259031	6.430943	7.348503	-45.000000	38.537213	-45.000000	-36.515596	2058.227342	-1729.289894	33.234257	62.557299	2173.145353	18.928454	19.405250	7.622091	14.752290	37.557334	-36.488039	-45.000000	-45.000000	-2075.723397	2065.018213	135.087788	170.709989	1450.694242	-353.298649	7.541187	-19.093690	
10.3400	-33.688563	-21.726865	33.220317	-183.850575	812.711596	6.455161	7.351642	-45.000000	38.540925	-45.000000	-36.557357	2058.392886	-1729.527014	33.143718	62.769824	2173.065611	18.776789	19.346577	7.925786	14.782349	37.578014	-36.420380	-45.000000	-45.000000	-2075.917102	2064.842611	135.114196	170.489053	1450.680411	-352.843937	7.695472	-19.053411	
10.3500	-33.314755	-22.225063	33.975709	-179.566956	811.092133	6.482025	7.378978	-45.000000	38.534858	-45.000000	-36.659945	2058.558528	-1729.783784	33.052166	63.010121	2172.980073	18.666285	19.277455	8.221581	14.793179	37.592416	-36.325292	-45.000000	-45.000000	-2076.104757	2064.655822	135.143089	170.201569	1450.652247	-352.370845	7.855801	-19.009589	
10.3600	-32.917021	-22.747272	34.777058	-175.192243	809.406057	6.511531	7.415618	-45.000000	38.511704	-45.000000	-36.822452	2058.726401	-1730.055811	32.956956	63.275201	2172.887972	18.612645	19.198860	8.509824	14.790323	37.602882	-36.208851	-45.000000	-45.000000	-2076.296400	2064.452548	135.190699	169.851766	1450.607096	-351.875761	8.019303	-18.962057	
10.3700	-32.491501	-23.291370	35.626267	-170.732024	807.659681	6.543623	7.465467	-45.000000	38.473246	-45.000000	-37.050781	2058.896115	-1730.338326	32.856131	63.563323	2172.792676	18.628449	19.113617	8.786914	14.774711	37.611324	-36.066021	-45.000000	-45.000000	-2076.488903	2064.233848	135.250598	169.433077	1450.550042	-351.356840	8.184584	-18.912778	
10.3800	-32.036207	-23.855881	36.524770	-166.192278	805.860599	6.578092	7.522243	-45.000000	38.418953	-45.000000	-37.347139	2059.068143	-1730.629665	32.750054	63.873189	2172.691885	18.723683	19.022536	9.052487	14.747219	37.615915	-35.897873	-45.000000	-45.000000	-2076.687014	2063.999295	135.329938	168.948116	1450.482417	-350.811901	8.351469	-18.862624	
10.3900	-31.550573	-24.434961	37.468639	-161.578793	804.017627	6.614500	7.578056	-45.000000	38.350862	-45.000000	-37.710949	2059.243152	-1730.926667	32.636285	64.205576	2172.587107	18.906358	18.928017	9.306020	14.716385	37.618738	-35.704395	-45.000000	-45.000000	-2076.891441	2063.749517	135.427854	168.396681	1450.412625	-350.238347	8.516898	-18.814306	
10.4000	-31.033475	-25.026208	38.457442	-156.897831	802.141134	6.652123	7.626045	-45.000000	38.266922	-45.000000	-38.136857	2059.419772	-1731.226468	32.515605	64.561942	2172.476541	19.181807	18.830891	9.546421	14.683743	37.618830	-35.489527	-45.000000	-45.000000	-2077.106619	2063.480795	135.552540	167.786529	1450.342093	-349.631985	8.679893	-18.769274	
10.4100	-30.489833	-25.624562	39.485374	-152.155701	800.242722	6.689876	7.662168	-45.000000	38.166461	-45.000000	-38.616439	2059.595383	-1731.529985	32.386026	64.943000	2172.362422	19.553962	18.733244	9.771690	14.652679	37.616993	-35.259554	-45.000000	-45.000000	-2077.330543	2063.194471	135.704556	167.123025	1450.270998	-348.987368	8.837730	-18.729064	
10.4200	-29.916340	-26.236955	40.555157	-147.359531	798.335256	6.726317	7.702207	-45.000000	38.052346	-45.000000	-39.155961	2059.771029	-1731.837483	32.253290	65.348886	2172.243163	20.022380	18.636257	9.977075	14.611824	37.611036	-35.008824	-45.000000	-45.000000	-2077.555143	2062.894253	135.880295	166.398928	1450.192524	-348.299739	8.989897	-18.694082	
10.4300	-29.315655	-26.859888	41.664243	-142.516839	796.432157	6.759697	7.746935	-45.000000	37.925655	-45.000000	-39.750643	2059.945680	-1732.149070	32.115106	65.778366	2172.117333	20.585074	18.540727	10.160992	14.560317	37.601489	-34.739441	-45.000000	-45.000000	-2077.778438	2062.584496	136.077821	165.615307	1450.104685	-347.567356	9.133395	-18.665168	
10.4400	-28.682881	-27.493942	42.813680	-137.636422	794.547215	6.788222	7.807864	-45.000000	37.789752	-45.000000	-40.399872	2060.120204	-1732.459636	31.973784	66.234178	2171.981992	21.235069	18.446969	10.319687	14.490118	37.588186	-34.444861	-45.000000	-45.000000	-2077.996291	2062.267554	136.290952	164.766365	1450.007417	-346.791816	9.266855	-18.643414	
10.4500	-28.020021	-28.133626	44.001009	-132.728463	792.693996	6.810366	7.884862	-45.000000	37.648542	-45.000000	-41.092772	2060.289299	-1732.769131	31.826695	66.720964	2171.836314	21.961997	18.354654	10.453073	14.397024	37.567829	-34.127755	-45.000000	-45.000000	-2078.211246	2061.946940	136.520788	163.858870	1449.900418	-345.978716	9.389251	-18.628871	
10.4600	-27.324602	-28.781719	45.222734	-127.805259	790.885703	6.825303	7.989886	-45.000000	37.509714	-45.000000	-41.822492	2060.453240	-1733.076224	31.675459	67.250470	2171.680599	22.747511	18.264260	10.558346	14.274625	37.539880	-33.779162	-45.000000	-45.000000	-2078.416441	2061.627402	136.760146	162.884016	1449.783859	-345.138009	9.499399	-18.621381	
10.4700	-26.592367	-29.435612	46.486344	-122.881159	789.134802	6.833137	8.135403	-45.000000	37.386683	-45.000000	-42.574700	2060.593538	-1733.389685	31.520622	67.844149	2171.512854	23.565925	18.172812	10.638800	14.100173	37.488231	-33.400375	-45.000000	-45.000000	-2078.621700	2061.308925	137.017399	161.863024	1449.652217	-344.287711	9.604831	-18.618181	
10.4800	-25.844484	-30.079153	47.757086	-117.972492	787.453020	6.834994	8.298530	-45.000000	37.278741	-45.000000	-43.293534	2060.713546	-1733.708714	31.349903	68.521161	2171.336180	24.394295	18.080953	10.694153	13.903963	37.425222	-33.003224	-45.000000	-45.000000	-2078.826663	2060.996730	137.285740	160.801166	1449.512605	-343.442701	9.696228	-18.618528	
10.4900	-25.090674	-30.698456	49.015448	-113.097330	785.851387	6.832751	8.472262	-45.000000	37.200269	-45.000000	-43.922586	2060.801832	-1734.034624	31.152367	69.298591	2171.156108	25.211623	17.988312	10.730526	13.689823	37.343922	-32.596298	-45.000000	-45.000000	-2079.044259	2060.688500	137.566975	159.723737	1449.359490	-342.617120	9.772602	-18.618419	
10.5000	-24.354431	-31.276572	50.219793	-108.275135	784.340488	6.828695	8.620643	-45.000000	37.143059	-45.000000	-44.407614	2060.878662	-1734.353607	30.911106	70.168296	2170.979014	26.005954	17.898297	10.749263	13.505858	37.267131	-32.192788	-45.000000	-45.000000	-2079.275602	2060.387381	137.851352	158.633878	1449.199776	-341.814904	9.820888	-18.617490	
10.5100	-23.645979	-31.807973	51.355749	-103.526452	782.930648	6.825069	8.744089	-45.000000	37.108023	-45.000000	-44.742462	2060.940948	-1734.665243	30.632490	71.113241	2170.801398	26.768609	17.809935	10.754750	13.349230	37.193352	-31.803173	-45.000000	-45.000000	-2079.522406	2060.088184	138.138199	157.555813	1449.026773	-341.038843	9.846652	-18.613197	
10.5200	-23.005416	-32.276601	52.373308	-98.872623	781.632079	6.823809	8.787379	-45.000000	37.061751	-45.000000	-44.921565	2061.025186	-1734.955640	30.313485	72.084301	2170.623638	27.511965	17.727373	10.745629	13.282649	37.161983	-31.458809	-45.000000	-45.000000	-2079.776727	2059.800200	138.419101	156.491906	1448.858696	-340.272584	9.836196	-18.609949	
10.5300	-22.408707	-32.700116	53.305054	-94.336058	780.454892	6.826401	8.804920	-45.000000	37.027905	-45.000000	-44.991471	2061.107790	-1735.232023	29.977203	73.056609	2170.445981	28.233404	17.649525	10.726833	13.244541	37.144611	-31.140825	-45.000000	-45.000000	-2080.034310	2059.521672	138.689218	155.465752	1448.683520	-339.518916	9.807452	-18.604624	
